<svg width="751" height="751" viewBox="0 0 751 751" version="1.1" xmlns="http://www.w3.org/2000/svg" xmlns:xlink="http://www.w3.org/1999/xlink">
<title>Icon</title>
<desc>Created using Figma</desc>
<g id="Canvas" transform="translate(-1592 655)">
<g id="Icon">
<g id="Ellipse 2">
<use xlink:href="#path0_fill" transform="translate(1592.55 -654.57)" fill="#F5F5F5"/>
<mask id="mask0_outline_ins">
<use xlink:href="#path0_fill" fill="white" transform="translate(1592.55 -654.57)"/>
</mask>
<g mask="url(#mask0_outline_ins)">
<use xlink:href="#path1_stroke_2x" transform="translate(1592.55 -654.57)" fill="#5E8EB4"/>
</g>
</g>
<g id="Polygon 2">
<use xlink:href="#path2_fill" transform="matrix(0.866025 -0.5 0.5 0.866025 1452 -417.19)" fill="#5E8EB4"/>
<mask id="mask1_outline_ins">
<use xlink:href="#path2_fill" fill="white" transform="matrix(0.866025 -0.5 0.5 0.866025 1452 -417.19)"/>
</mask>
<g mask="url(#mask1_outline_ins)">
<use xlink:href="#path3_stroke_2x" transform="matrix(0.866025 -0.5 0.5 0.866025 1452 -417.19)" fill="#5E8EB4"/>
</g>
</g>
</g>
</g>
<defs>
<path id="path0_fill" d="M 749.62 374.81C 749.62 581.812 581.812 749.62 374.81 749.62C 167.808 749.62 0 581.812 0 374.81C 0 167.808 167.808 0 374.81 0C 581.812 0 749.62 167.808 749.62 374.81Z"/>
<path id="path1_stroke_2x" d="M 717.62 374.81C 717.62 564.139 564.139 717.62 374.81 717.62L 374.81 781.62C 599.485 781.62 781.62 599.485 781.62 374.81L 717.62 374.81ZM 374.81 717.62C 185.481 717.62 32 564.139 32 374.81L -32 374.81C -32 599.485 150.135 781.62 374.81 781.62L 374.81 717.62ZM 32 374.81C 32 185.481 185.481 32 374.81 32L 374.81 -32C 150.135 -32 -32 150.135 -32 374.81L 32 374.81ZM 374.81 32C 564.139 32 717.62 185.481 717.62 374.81L 781.62 374.81C 781.62 150.135 599.485 -32 374.81 -32L 374.81 32Z"/>
<path id="path2_fill" d="M 371.346 6C 372.885 3.33333 376.734 3.33333 378.274 6L 695.941 556.215C 697.48 558.882 695.556 562.215 692.477 562.215L 57.1432 562.215C 54.064 562.215 52.1395 558.882 53.6791 556.215L 371.346 6Z"/>
<path id="path3_stroke_2x" d="M 378.274 6L 364.418 14L 378.274 6ZM 695.941 556.215L 682.084 564.215L 695.941 556.215ZM 371.346 6L 385.202 14L 371.346 6ZM 53.6791 556.215L 67.5355 564.215L 53.6791 556.215ZM 364.418 14L 682.084 564.215L 709.797 548.215L 392.13 -2L 364.418 14ZM 692.477 546.215L 57.1432 546.215L 57.1432 578.215L 692.477 578.215L 692.477 546.215ZM 67.5355 564.215L 385.202 14L 357.49 -2L 39.8227 548.215L 67.5355 564.215ZM 392.13 -2C 384.432 -15.3333 365.188 -15.3333 357.49 -2L 385.202 14C 380.583 22 369.036 22 364.418 14L 392.13 -2ZM 682.084 564.215C 677.466 556.215 683.239 546.215 692.477 546.215L 692.477 578.215C 707.873 578.215 717.495 561.548 709.797 548.215L 682.084 564.215ZM 57.1432 546.215C 66.3808 546.215 72.1543 556.215 67.5355 564.215L 39.8227 548.215C 32.1247 561.548 41.7472 578.215 57.1432 578.215L 57.1432 546.215Z"/>
</defs>
</svg>
