<svg width="557" height="101" viewBox="0 0 557 101" version="1.1" xmlns="http://www.w3.org/2000/svg" xmlns:xlink="http://www.w3.org/1999/xlink">
<title>Savadoro</title>
<desc>Created using Figma</desc>
<g id="Canvas" transform="translate(-1676 -559)">
<g id="Savadoro">
<use xlink:href="#path0_fill" transform="translate(1669 527)" fill="#5E8EB4"/>
</g>
</g>
<defs>
<path id="path0_fill" d="M 40.608 132.448C 35.328 132.448 30.144 131.728 25.056 130.288C 19.968 128.848 15.792 126.784 12.528 124.096C 9.36 121.408 7.776 118.336 7.776 114.88L 7.776 99.472L 10.368 99.472C 12 109.072 15.168 116.032 19.872 120.352C 24.576 124.576 31.056 126.688 39.312 126.688C 44.496 126.688 48.912 125.392 52.56 122.8C 56.304 120.208 58.176 116.608 58.176 112C 58.176 107.968 56.928 104.464 54.432 101.488C 51.936 98.512 47.904 95.392 42.336 92.128L 24.624 81.616C 18.48 77.968 14.112 74.272 11.52 70.528C 9.024 66.784 7.776 62.224 7.776 56.848C 7.776 49.456 10.32 43.552 15.408 39.136C 20.592 34.624 27.36 32.368 35.712 32.368C 40.608 32.368 45.456 33.088 50.256 34.528C 55.056 35.872 58.992 37.888 62.064 40.576C 65.232 43.168 66.816 46.192 66.816 49.648L 66.816 65.056L 64.224 65.056C 62.592 55.456 59.472 48.592 54.864 44.464C 50.352 40.24 43.968 38.128 35.712 38.128C 31.296 38.128 27.408 39.472 24.048 42.16C 20.688 44.848 19.008 48.352 19.008 52.672C 19.008 56.608 20.208 59.872 22.608 62.464C 25.104 65.056 29.232 68.08 34.992 71.536L 52.704 82.048C 59.232 85.984 63.84 89.632 66.528 92.992C 69.216 96.352 70.56 100.624 70.56 105.808C 70.56 113.872 67.872 120.352 62.496 125.248C 57.12 130.048 49.824 132.448 40.608 132.448ZM 103.277 131.44C 100.205 131.44 97.0853 130.816 93.9172 129.568C 90.7492 128.224 88.0132 126.064 85.7092 123.088C 83.5012 120.112 82.3972 116.176 82.3972 111.28C 82.3972 103.984 85.7572 98.8 92.4772 95.728C 99.2933 92.656 108.173 91.12 119.117 91.12L 123.437 91.12C 123.437 81.712 122.141 75.28 119.549 71.824C 116.957 68.368 113.213 66.64 108.317 66.64C 103.997 66.64 100.541 67.552 97.9493 69.376C 95.3573 71.2 93.5332 74.368 92.4772 78.88L 85.9973 78.88C 85.9973 75.616 86.1893 73.072 86.5733 71.248C 86.9573 69.328 87.9652 67.552 89.5973 65.92C 91.3252 64.192 94.1573 62.944 98.0932 62.176C 102.125 61.312 106.493 60.88 111.197 60.88C 118.973 60.88 125.117 62.992 129.629 67.216C 134.141 71.344 136.397 79.312 136.397 91.12L 136.397 130L 129.197 130L 124.157 123.52L 123.437 123.52C 121.709 125.728 119.165 127.6 115.805 129.136C 112.445 130.672 108.269 131.44 103.277 131.44ZM 109.757 124.96C 112.925 124.96 115.565 124.192 117.677 122.656C 119.789 121.12 121.709 119.008 123.437 116.32L 123.437 96.88L 119.117 96.88C 112.013 96.88 106.397 98.224 102.269 100.912C 98.1412 103.504 96.0772 106.96 96.0772 111.28C 96.0772 115.696 97.3732 119.104 99.9652 121.504C 102.653 123.808 105.917 124.96 109.757 124.96ZM 158.959 78.88C 156.655 73.504 154.447 69.76 152.335 67.648C 150.223 65.44 147.439 64.24 143.983 64.048L 143.983 61.168C 144.463 61.168 145.135 61.12 145.999 61.024C 146.959 60.928 147.919 60.88 148.879 60.88C 153.967 60.88 158.575 62.176 162.703 64.768C 166.831 67.264 170.383 71.968 173.359 78.88L 186.319 109.84L 206.479 62.32L 213.679 62.32L 184.159 131.44L 181.279 131.44L 158.959 78.88ZM 242.777 131.44C 239.705 131.44 236.585 130.816 233.417 129.568C 230.249 128.224 227.513 126.064 225.209 123.088C 223.001 120.112 221.897 116.176 221.897 111.28C 221.897 103.984 225.257 98.8 231.977 95.728C 238.793 92.656 247.673 91.12 258.617 91.12L 262.937 91.12C 262.937 81.712 261.641 75.28 259.049 71.824C 256.457 68.368 252.713 66.64 247.817 66.64C 243.497 66.64 240.041 67.552 237.449 69.376C 234.857 71.2 233.033 74.368 231.977 78.88L 225.497 78.88C 225.497 75.616 225.689 73.072 226.073 71.248C 226.457 69.328 227.465 67.552 229.097 65.92C 230.825 64.192 233.657 62.944 237.593 62.176C 241.625 61.312 245.993 60.88 250.697 60.88C 258.473 60.88 264.617 62.992 269.129 67.216C 273.641 71.344 275.897 79.312 275.897 91.12L 275.897 130L 268.697 130L 263.657 123.52L 262.937 123.52C 261.209 125.728 258.665 127.6 255.305 129.136C 251.945 130.672 247.769 131.44 242.777 131.44ZM 249.257 124.96C 252.425 124.96 255.065 124.192 257.177 122.656C 259.289 121.12 261.209 119.008 262.937 116.32L 262.937 96.88L 258.617 96.88C 251.513 96.88 245.897 98.224 241.769 100.912C 237.641 103.504 235.577 106.96 235.577 111.28C 235.577 115.696 236.873 119.104 239.465 121.504C 242.153 123.808 245.417 124.96 249.257 124.96ZM 318.297 131.44C 309.945 131.44 303.513 128.128 299.001 121.504C 294.585 114.88 292.377 106.432 292.377 96.16C 292.377 85.888 294.681 77.44 299.289 70.816C 303.993 64.192 310.809 60.88 319.737 60.88C 323.385 60.88 326.601 61.264 329.385 62.032C 332.169 62.8 334.953 63.856 337.737 65.2L 337.737 52.24C 337.737 47.344 337.065 43.744 335.721 41.44C 334.377 39.04 331.689 37.84 327.657 37.84L 324.777 37.84L 324.777 34.96L 337.737 34.96C 341.289 34.96 343.929 35.44 345.657 36.4C 347.481 37.264 348.777 38.896 349.545 41.296C 350.313 43.696 350.697 47.344 350.697 52.24L 350.697 130L 343.497 130L 338.457 123.52L 337.737 123.52C 335.625 125.92 333.129 127.84 330.249 129.28C 327.465 130.72 323.481 131.44 318.297 131.44ZM 322.617 125.68C 326.553 125.68 329.529 124.96 331.545 123.52C 333.561 122.08 335.625 119.92 337.737 117.04L 337.737 70.96C 334.857 69.616 332.361 68.56 330.249 67.792C 328.137 67.024 326.073 66.64 324.057 66.64C 317.913 66.64 313.353 69.328 310.377 74.704C 307.497 80.08 306.057 87.232 306.057 96.16C 306.057 104.992 307.449 112.144 310.233 117.616C 313.017 122.992 317.145 125.68 322.617 125.68ZM 399.285 131.44C 392.757 131.44 387.093 129.904 382.293 126.832C 377.493 123.664 373.845 119.392 371.349 114.016C 368.853 108.64 367.605 102.688 367.605 96.16C 367.605 89.632 368.853 83.68 371.349 78.304C 373.845 72.928 377.493 68.704 382.293 65.632C 387.093 62.464 392.757 60.88 399.285 60.88C 405.813 60.88 411.477 62.464 416.277 65.632C 421.077 68.704 424.725 72.928 427.221 78.304C 429.717 83.68 430.965 89.632 430.965 96.16C 430.965 102.688 429.717 108.64 427.221 114.016C 424.725 119.392 421.077 123.664 416.277 126.832C 411.477 129.904 405.813 131.44 399.285 131.44ZM 399.285 125.68C 402.837 125.68 405.957 124.384 408.645 121.792C 411.429 119.2 413.541 115.648 414.981 111.136C 416.517 106.624 417.285 101.632 417.285 96.16C 417.285 90.688 416.517 85.696 414.981 81.184C 413.541 76.672 411.429 73.12 408.645 70.528C 405.957 67.936 402.837 66.64 399.285 66.64C 395.733 66.64 392.565 67.936 389.781 70.528C 387.093 73.12 384.981 76.672 383.445 81.184C 382.005 85.696 381.285 90.688 381.285 96.16C 381.285 101.632 382.005 106.624 383.445 111.136C 384.981 115.648 387.093 119.2 389.781 121.792C 392.565 124.384 395.733 125.68 399.285 125.68ZM 449.004 79.6C 449.004 74.704 448.332 71.104 446.988 68.8C 445.644 66.4 442.956 65.2 438.924 65.2L 437.484 65.2L 437.484 62.32L 449.004 62.32C 452.652 62.32 455.388 62.848 457.212 63.904C 459.132 64.864 460.476 66.496 461.244 68.8L 461.964 68.8C 463.692 66.592 465.996 64.72 468.876 63.184C 471.852 61.648 475.308 60.88 479.244 60.88C 483.084 60.88 485.964 61.6 487.884 63.04C 489.516 64.288 491.196 66.448 492.924 69.52L 487.164 73.84C 486.108 72.4 484.572 71.344 482.556 70.672C 480.54 69.904 478.236 69.52 475.644 69.52C 472.764 69.52 470.124 70.192 467.724 71.536C 465.324 72.784 463.404 74.512 461.964 76.72L 461.964 130L 449.004 130L 449.004 79.6ZM 531.613 131.44C 525.085 131.44 519.421 129.904 514.621 126.832C 509.821 123.664 506.173 119.392 503.677 114.016C 501.181 108.64 499.933 102.688 499.933 96.16C 499.933 89.632 501.181 83.68 503.677 78.304C 506.173 72.928 509.821 68.704 514.621 65.632C 519.421 62.464 525.085 60.88 531.613 60.88C 538.141 60.88 543.805 62.464 548.605 65.632C 553.405 68.704 557.053 72.928 559.549 78.304C 562.045 83.68 563.293 89.632 563.293 96.16C 563.293 102.688 562.045 108.64 559.549 114.016C 557.053 119.392 553.405 123.664 548.605 126.832C 543.805 129.904 538.141 131.44 531.613 131.44ZM 531.613 125.68C 535.165 125.68 538.285 124.384 540.973 121.792C 543.757 119.2 545.869 115.648 547.309 111.136C 548.845 106.624 549.613 101.632 549.613 96.16C 549.613 90.688 548.845 85.696 547.309 81.184C 545.869 76.672 543.757 73.12 540.973 70.528C 538.285 67.936 535.165 66.64 531.613 66.64C 528.061 66.64 524.893 67.936 522.109 70.528C 519.421 73.12 517.309 76.672 515.773 81.184C 514.333 85.696 513.613 90.688 513.613 96.16C 513.613 101.632 514.333 106.624 515.773 111.136C 517.309 115.648 519.421 119.2 522.109 121.792C 524.893 124.384 528.061 125.68 531.613 125.68Z"/>
</defs>
</svg>
