<svg width="109" height="94" viewBox="0 0 109 94" version="1.1" xmlns="http://www.w3.org/2000/svg" xmlns:xlink="http://www.w3.org/1999/xlink">
<title>Zephir_Pyramid_White</title>
<desc>Created using Figma</desc>
<g id="Canvas" transform="translate(134 -32)">
<g id="Zephir_Pyramid_White">
<use xlink:href="#path0_stroke" transform="translate(-128 38)" fill="#FFFFFF"/>
</g>
</g>
<defs>
<path id="path0_stroke" d="M 38.087 82.4348L 35.6523 85.6085L 37.6457 87.1376L 39.8887 86.006L 38.087 82.4348ZM 43.8261 0L 46.6824 -2.80029L 43.5672 -5.9778L 40.7384 -2.54283L 43.8261 0ZM 96 53.2174L 97.8017 56.7886L 102.687 54.3241L 98.8563 50.4171L 96 53.2174ZM 0 53.2174L -3.08772 50.6746L -5.71997 53.8709L -2.43464 56.3911L 0 53.2174ZM 42.0773 82.7126L 47.8164 0.277809L 39.8357 -0.277809L 34.0966 82.157L 42.0773 82.7126ZM 40.9698 2.80029L 93.1437 56.0177L 98.8563 50.4171L 46.6824 -2.80029L 40.9698 2.80029ZM 94.1983 49.6461L 36.2852 78.8635L 39.8887 86.006L 97.8017 56.7886L 94.1983 49.6461ZM 40.5216 79.2611L 2.43464 50.0437L -2.43464 56.3911L 35.6523 85.6085L 40.5216 79.2611ZM 3.08772 55.7602L 46.9138 2.54283L 40.7384 -2.54283L -3.08772 50.6746L 3.08772 55.7602Z"/>
</defs>
</svg>
