<svg width="227" height="202" viewBox="0 0 227 202" version="1.1" xmlns="http://www.w3.org/2000/svg" xmlns:xlink="http://www.w3.org/1999/xlink">
<title>react</title>
<desc>Created using Figma</desc>
<g id="Canvas" transform="translate(150 127)">
<g id="react">
<g id="Vector">
<use xlink:href="#path0_fill" transform="translate(-149.511 -126.27)" fill="#53C1DE"/>
</g>
<g id="Vector">
<use xlink:href="#path1_fill" transform="translate(-139.859 -116.64)" fill="#F5F5F5"/>
</g>
<g id="Vector">
<use xlink:href="#path2_fill" transform="translate(-56.71 -46.1196)" fill="#53C1DE"/>
</g>
</g>
</g>
<defs>
<path id="path0_fill" d="M 185.782 65.1595C 183.377 64.3346 180.952 63.5703 178.508 62.8675C 178.913 61.2209 179.288 59.567 179.632 57.9065C 185.138 31.1785 181.538 9.64653 169.244 2.55853C 157.457 -4.23947 138.179 2.84852 118.709 19.7915C 116.79 21.4649 114.915 23.1864 113.083 24.9545C 111.856 23.7788 110.608 22.626 109.339 21.4965C 88.934 3.37853 68.481 -4.25547 56.2 2.85353C 44.424 9.67053 40.936 29.9135 45.893 55.2435C 46.3862 57.7519 46.943 60.2474 47.563 62.7275C 44.669 63.5495 41.874 64.4255 39.2 65.3575C 15.278 73.6975 3.05176e-08 86.7695 3.05176e-08 100.328C 3.05176e-08 114.332 16.4 128.378 41.318 136.894C 43.3385 137.581 45.3758 138.218 47.428 138.804C 46.7613 141.475 46.1694 144.166 45.653 146.871C 40.927 171.761 44.618 191.524 56.363 198.299C 68.494 205.294 88.854 198.104 108.68 180.774C 110.247 179.404 111.82 177.951 113.395 176.428C 115.379 178.342 117.416 180.2 119.503 182.001C 138.707 198.526 157.673 205.199 169.408 198.406C 181.528 191.39 185.466 170.159 180.352 144.328C 179.962 142.355 179.507 140.34 178.997 138.288C 180.427 137.866 181.83 137.43 183.199 136.976C 209.103 128.394 225.956 114.519 225.956 100.328C 225.956 86.7205 210.186 73.5605 185.782 65.1595L 185.782 65.1595Z"/>
<path id="path1_fill" d="M 170.511 118.183C 169.276 118.592 168.008 118.987 166.716 119.37C 163.856 110.317 159.996 100.69 155.274 90.7454C 159.781 81.0354 163.491 71.5324 166.271 62.5374C 168.582 63.2074 170.826 63.9124 172.988 64.6574C 193.898 71.8544 206.652 82.4974 206.652 90.6974C 206.652 99.4324 192.877 110.772 170.512 118.183L 170.511 118.183ZM 161.231 136.572C 163.492 147.994 163.815 158.321 162.317 166.394C 160.971 173.648 158.265 178.484 154.919 180.421C 147.798 184.543 132.569 179.185 116.147 165.053C 114.264 163.433 112.367 161.703 110.465 159.873C 116.832 152.909 123.195 144.813 129.405 135.823C 140.329 134.854 150.649 133.269 160.008 131.106C 160.468 132.966 160.878 134.789 161.231 136.572L 161.231 136.572ZM 67.381 179.709C 60.424 182.166 54.883 182.236 51.534 180.305C 44.406 176.195 41.444 160.325 45.485 139.04C 45.9655 136.525 46.5157 134.023 47.135 131.538C 56.39 133.585 66.635 135.058 77.585 135.946C 83.836 144.743 90.383 152.829 96.981 159.91C 95.5788 161.267 94.1433 162.589 92.676 163.874C 83.909 171.538 75.124 176.974 67.382 179.709L 67.381 179.709ZM 34.788 118.129C 23.77 114.363 14.671 109.469 8.434 104.129C 2.83 99.3294 4.57764e-07 94.5644 4.57764e-07 90.6974C 4.57764e-07 82.4704 12.267 71.9754 32.726 64.8424C 35.2939 63.951 37.8873 63.135 40.503 62.3954C 43.331 71.5924 47.04 81.2084 51.516 90.9324C 46.982 100.801 43.22 110.57 40.366 119.875C 38.4926 119.339 36.6327 118.757 34.788 118.129L 34.788 118.129ZM 45.714 43.7594C 41.467 22.0564 44.287 5.68541 51.384 1.57741C 58.944 -2.79859 75.659 3.44141 93.277 19.0844C 94.403 20.0844 95.534 21.1314 96.667 22.2144C 90.103 29.2634 83.616 37.2884 77.419 46.0344C 66.792 47.0194 56.619 48.6014 47.267 50.7204C 46.6909 48.4132 46.1731 46.0918 45.714 43.7584L 45.714 43.7594ZM 143.181 67.8264C 140.972 64.0108 138.681 60.2433 136.31 56.5264C 143.52 57.4364 150.427 58.6464 156.913 60.1274C 154.966 66.3684 152.539 72.8944 149.681 79.5844C 147.593 75.6222 145.426 71.7021 143.181 67.8264L 143.181 67.8264ZM 103.434 29.1124C 107.886 33.9354 112.345 39.3214 116.731 45.1644C 107.834 44.744 98.9222 44.742 90.025 45.1584C 94.415 39.3694 98.912 33.9914 103.434 29.1124L 103.434 29.1124ZM 63.432 67.8924C 61.2154 71.7373 59.0888 75.6333 57.054 79.5774C 54.243 72.9104 51.838 66.3554 49.874 60.0254C 56.321 58.5824 63.196 57.4034 70.359 56.5084C 67.9612 60.2483 65.6516 64.044 63.432 67.8924L 63.432 67.8924ZM 70.565 125.575C 63.165 124.749 56.186 123.63 49.741 122.227C 51.736 115.785 54.194 109.089 57.065 102.279C 59.1084 106.226 61.2443 110.125 63.471 113.971C 65.7431 117.895 68.1085 121.764 70.565 125.575L 70.565 125.575ZM 103.701 152.964C 99.126 148.027 94.563 142.567 90.106 136.694C 94.432 136.864 98.843 136.95 103.326 136.95C 107.932 136.95 112.485 136.847 116.966 136.647C 112.566 142.627 108.123 148.095 103.701 152.964ZM 149.773 101.932C 152.793 108.816 155.339 115.476 157.361 121.809C 150.809 123.304 143.736 124.508 136.283 125.402C 138.671 121.616 140.984 117.783 143.22 113.904C 145.493 109.963 147.678 105.971 149.773 101.932L 149.773 101.932ZM 134.858 109.082C 131.435 115.028 127.82 120.861 124.018 126.572C 117.314 127.051 110.386 127.298 103.326 127.298C 96.295 127.298 89.455 127.079 82.868 126.652C 78.9674 120.955 75.2838 115.112 71.825 109.135C 68.3824 103.191 65.1667 97.1179 62.185 90.9294C 65.1591 84.739 68.3651 78.6628 71.796 72.7134L 71.796 72.7154C 75.2259 66.7648 78.8805 60.9466 82.752 55.2734C 89.472 54.7654 96.362 54.4994 103.327 54.4994C 110.323 54.4994 117.222 54.7674 123.94 55.2794C 127.772 60.9439 131.404 66.7418 134.827 72.6624C 138.27 78.5985 141.518 84.645 144.568 90.7924C 141.55 97.0024 138.311 103.103 134.859 109.082L 134.858 109.082ZM 154.771 1.29041C 162.337 5.65441 165.28 23.2514 160.526 46.3284C 160.214 47.8317 159.876 49.3293 159.51 50.8204C 150.136 48.6574 139.956 47.0474 129.298 46.0474C 123.089 37.2064 116.656 29.1674 110.198 22.2094C 111.89 20.578 113.623 18.9888 115.394 17.4434C 132.076 2.92541 147.667 -2.80659 154.771 1.29041L 154.771 1.29041Z"/>
<path id="path2_fill" d="M 20.177 9.15527e-07C 31.321 9.15527e-07 40.354 9.034 40.354 20.177C 40.354 31.321 31.321 40.355 20.177 40.355C 9.03399 40.355 -1.28174e-06 31.321 -1.28174e-06 20.177C -1.28174e-06 9.034 9.03399 9.15527e-07 20.177 9.15527e-07"/>
</defs>
</svg>
