<svg width="334" height="334" viewBox="0 0 334 334" version="1.1" xmlns="http://www.w3.org/2000/svg" xmlns:xlink="http://www.w3.org/1999/xlink">
<title>g50</title>
<desc>Created using Figma</desc>
<g id="Canvas" transform="translate(594 219)">
<g id="g50">
<g id="g52">
<g id="g58">
<g id="path60">
<use xlink:href="#path0_fill" transform="matrix(1.25 0 0 -1.25 -594 114.619)" fill="#FFFFFF"/>
</g>
</g>
<g id="g62">
<g id="path64">
<use xlink:href="#path1_fill" transform="matrix(1.25 0 0 -1.25 -459.281 114.619)" fill="#07416E"/>
</g>
</g>
</g>
</g>
</g>
<defs>
<path id="path0_fill" d="M 252.163 1.06581e-14C 260.297 1.06581e-14 266.893 6.596 266.893 14.73L 266.893 252.164C 266.893 260.301 260.297 266.895 252.163 266.895L 14.73 266.895C 6.593 266.895 5.61523e-06 260.301 5.61523e-06 252.164L 5.61523e-06 14.73C 5.61523e-06 6.596 6.593 0 14.73 0L 252.163 1.06581e-14Z"/>
<path id="path1_fill" d="M 76.376 0L 76.376 103.355L 111.069 103.355L 116.263 143.635L 76.376 143.635L 76.376 169.352C 76.376 181.014 79.614 188.961 96.338 188.961L 117.668 188.971L 117.668 224.997C 113.978 225.487 101.317 226.584 86.587 226.584C 55.834 226.584 34.781 207.813 34.781 173.34L 34.781 143.635L 5.49316e-07 143.635L 5.49316e-07 103.355L 34.781 103.355L 34.781 0L 76.376 0Z"/>
</defs>
</svg>
