<svg width="130" height="130" viewBox="0 0 130 130" version="1.1" xmlns="http://www.w3.org/2000/svg" xmlns:xlink="http://www.w3.org/1999/xlink">
<title>linkedin</title>
<desc>Created using Figma</desc>
<g id="Canvas" transform="translate(113 65)">
<g id="linkedin">
<g id="g4">
<g id="path6">
<use xlink:href="#path0_fill" transform="translate(-113 -65)" fill="#FFFFFF"/>
</g>
<g id="path8">
<use xlink:href="#path1_fill" transform="translate(-95.3203 -47.161)" fill="#07416E"/>
</g>
<g id="path10">
<use xlink:href="#path2_fill" transform="translate(-62.5163 -17.9608)" fill="#07416E"/>
</g>
</g>
</g>
</g>
<defs>
<path id="path0_fill" d="M 119.984 0L 9.56333 0C 4.28676 0 5.83984e-06 4.18238 5.83984e-06 9.33928L 5.83984e-06 120.225C 5.83984e-06 125.386 4.28676 129.575 9.56333 129.575L 119.984 129.575C 125.27 129.575 129.577 125.386 129.577 120.225L 129.577 9.33928C 129.577 4.18238 125.27 0 119.984 0Z"/>
<path id="path1_fill" d="M 11.1443 -3.93066e-08C 17.2901 -3.93066e-08 22.2824 4.99312 22.2824 11.1398C 22.2824 17.291 17.2901 22.2859 11.1443 22.2859C 4.98593 22.2859 4.375e-06 17.291 4.375e-06 11.1398C 4.375e-06 4.99312 4.98593 -3.93066e-08 11.1443 -3.93066e-08ZM 1.5315 30.7389L 20.7499 30.7389L 20.7499 92.5757L 1.5315 92.5757L 1.5315 30.7389L 1.5315 30.7389Z"/>
<path id="path2_fill" d="M -2.92969e-08 1.5387L 18.4365 1.5387L 18.4365 9.98715L 18.692 9.98715C 21.2565 5.1263 27.5265 -1.72681e-06 36.8757 -1.72681e-06C 56.3371 -1.72681e-06 59.9301 12.8072 59.9301 29.4566L 59.9301 63.3755L 40.7252 63.3755L 40.7252 33.3043C 40.7252 26.13 40.5929 16.9068 30.738 16.9068C 20.7365 16.9068 19.205 24.7191 19.205 32.7851L 19.205 63.3755L -2.92969e-08 63.3755L -2.92969e-08 1.5387"/>
</defs>
</svg>
