<svg width="414" height="545" viewBox="0 0 414 545" version="1.1" xmlns="http://www.w3.org/2000/svg" xmlns:xlink="http://www.w3.org/1999/xlink">
<title>SavvyAudioVisual_noIMG</title>
<desc>Created using Figma</desc>
<g id="Canvas" transform="translate(276 -92)">
<g id="SavvyAudioVisual_noIMG">
<g id="S" filter="url(#filter0_i)">
<use xlink:href="#path0_fill" transform="translate(-276 43)" fill="#418BC4"/>
</g>
<g id="V" filter="url(#filter1_i)">
<use xlink:href="#path1_fill" transform="translate(-276 374)" fill="#418BC4"/>
</g>
<g id="Y" filter="url(#filter2_i)">
<use xlink:href="#path2_fill" transform="translate(-276 485)" fill="#418BC4"/>
</g>
<g id="Visual" filter="url(#filter3_i)">
<use xlink:href="#path3_fill" transform="translate(-276 264)" fill="#C45141"/>
</g>
<g id="Audio" filter="url(#filter4_i)">
<use xlink:href="#path4_fill" transform="translate(-276 155)" fill="#C49241"/>
</g>
</g>
</g>
<defs>
<filter id="filter0_i" filterUnits="userSpaceOnUse" x="-273" y="92" width="82" height="109" color-interpolation-filters="sRGB">
<feFlood flood-opacity="0" result="BackgroundImageFix"/>
<feBlend mode="normal" in="SourceGraphic" in2="BackgroundImageFix" result="shape"/>
<feColorMatrix in="SourceAlpha" type="matrix" values="0 0 0 0 0 0 0 0 0 0 0 0 0 0 0 0 0 0 255 0" result="hardAlpha"/>
<feOffset dx="0" dy="4"/>
<feGaussianBlur stdDeviation="2"/>
<feComposite in2="hardAlpha" operator="arithmetic" k2="-1" k3="1"/>
<feColorMatrix type="matrix" values="0 0 0 0 0 0 0 0 0 0 0 0 0 0 0 0 0 0 0.25 0"/>
<feBlend mode="normal" in2="shape" result="effect1_innerShadow"/>
</filter>
<filter id="filter1_i" filterUnits="userSpaceOnUse" x="-280" y="425" width="106" height="107" color-interpolation-filters="sRGB">
<feFlood flood-opacity="0" result="BackgroundImageFix"/>
<feBlend mode="normal" in="SourceGraphic" in2="BackgroundImageFix" result="shape"/>
<feColorMatrix in="SourceAlpha" type="matrix" values="0 0 0 0 0 0 0 0 0 0 0 0 0 0 0 0 0 0 255 0" result="hardAlpha"/>
<feOffset dx="0" dy="4"/>
<feGaussianBlur stdDeviation="2"/>
<feComposite in2="hardAlpha" operator="arithmetic" k2="-1" k3="1"/>
<feColorMatrix type="matrix" values="0 0 0 0 0 0 0 0 0 0 0 0 0 0 0 0 0 0 0.25 0"/>
<feBlend mode="normal" in2="shape" result="effect1_innerShadow"/>
</filter>
<filter id="filter2_i" filterUnits="userSpaceOnUse" x="-280" y="536" width="100" height="105" color-interpolation-filters="sRGB">
<feFlood flood-opacity="0" result="BackgroundImageFix"/>
<feBlend mode="normal" in="SourceGraphic" in2="BackgroundImageFix" result="shape"/>
<feColorMatrix in="SourceAlpha" type="matrix" values="0 0 0 0 0 0 0 0 0 0 0 0 0 0 0 0 0 0 255 0" result="hardAlpha"/>
<feOffset dx="0" dy="4"/>
<feGaussianBlur stdDeviation="2"/>
<feComposite in2="hardAlpha" operator="arithmetic" k2="-1" k3="1"/>
<feColorMatrix type="matrix" values="0 0 0 0 0 0 0 0 0 0 0 0 0 0 0 0 0 0 0.25 0"/>
<feBlend mode="normal" in2="shape" result="effect1_innerShadow"/>
</filter>
<filter id="filter3_i" filterUnits="userSpaceOnUse" x="-280" y="308" width="422" height="114" color-interpolation-filters="sRGB">
<feFlood flood-opacity="0" result="BackgroundImageFix"/>
<feBlend mode="normal" in="SourceGraphic" in2="BackgroundImageFix" result="shape"/>
<feColorMatrix in="SourceAlpha" type="matrix" values="0 0 0 0 0 0 0 0 0 0 0 0 0 0 0 0 0 0 255 0" result="hardAlpha"/>
<feOffset dx="0" dy="4"/>
<feGaussianBlur stdDeviation="2"/>
<feComposite in2="hardAlpha" operator="arithmetic" k2="-1" k3="1"/>
<feColorMatrix type="matrix" values="0 0 0 0 0 0 0 0 0 0 0 0 0 0 0 0 0 0 0.25 0"/>
<feBlend mode="normal" in2="shape" result="effect1_innerShadow"/>
</filter>
<filter id="filter4_i" filterUnits="userSpaceOnUse" x="-280" y="199" width="396" height="114" color-interpolation-filters="sRGB">
<feFlood flood-opacity="0" result="BackgroundImageFix"/>
<feBlend mode="normal" in="SourceGraphic" in2="BackgroundImageFix" result="shape"/>
<feColorMatrix in="SourceAlpha" type="matrix" values="0 0 0 0 0 0 0 0 0 0 0 0 0 0 0 0 0 0 255 0" result="hardAlpha"/>
<feOffset dx="0" dy="4"/>
<feGaussianBlur stdDeviation="2"/>
<feComposite in2="hardAlpha" operator="arithmetic" k2="-1" k3="1"/>
<feColorMatrix type="matrix" values="0 0 0 0 0 0 0 0 0 0 0 0 0 0 0 0 0 0 0.25 0"/>
<feBlend mode="normal" in2="shape" result="effect1_innerShadow"/>
</filter>
<path id="path0_fill" d="M 46.8 150.416C 51.6 150.416 55.824 149.12 59.472 146.528C 63.216 143.936 65.088 140.048 65.088 134.864C 65.088 129.584 63.072 125.552 59.04 122.768C 55.104 119.984 49.44 117.584 42.048 115.568C 34.752 113.456 29.424 111.632 26.064 110.096C 22.8 108.56 19.68 106.544 16.704 104.048C 10.752 99.056 7.776 91.328 7.776 80.864C 7.776 72.32 10.8 64.976 16.848 58.832C 22.992 52.688 31.344 49.616 41.904 49.616C 46.992 49.616 52.272 50.384 57.744 51.92C 63.312 53.36 66.768 54.08 68.112 54.08C 69.456 54.08 70.656 53.12 71.712 51.2L 73.296 51.2L 74.304 80.288L 72 80.288C 67.392 71.936 62.544 65.264 57.456 60.272C 52.464 55.184 46.992 52.64 41.04 52.64C 35.184 52.64 30.624 54.032 27.36 56.816C 24.096 59.504 22.464 63.152 22.464 67.76C 22.464 72.272 24.384 75.776 28.224 78.272C 32.16 80.672 36.96 82.64 42.624 84.176C 48.288 85.712 51.984 86.768 53.712 87.344C 55.536 87.92 57.744 88.736 60.336 89.792C 63.024 90.752 65.184 91.808 66.816 92.96C 68.544 94.016 70.32 95.408 72.144 97.136C 74.064 98.768 75.552 100.592 76.608 102.608C 79.2 107.216 80.496 112.688 80.496 119.024C 80.496 129.392 77.232 137.744 70.704 144.08C 64.272 150.32 55.776 153.44 45.216 153.44C 39.744 153.44 33.456 152.72 26.352 151.28C 19.344 149.84 15.456 149.12 14.688 149.12C 13.344 149.12 12.048 150.56 10.8 153.44L 8.784 153.44L 7.344 119.168L 9.792 119.168C 14.016 127.52 19.392 134.816 25.92 141.056C 32.544 147.296 39.504 150.416 46.8 150.416Z"/>
<path id="path1_fill" d="M 61.92 125.936L 86.976 53.936L 75.744 53.936L 75.744 51.2L 97.776 51.2L 97.776 53.936L 91.008 53.936L 56.304 153.44L 44.208 153.44L 7.488 53.936L 0.864 53.936L 0.864 51.2L 47.952 51.2L 47.952 53.936L 37.728 53.936L 61.92 125.936Z"/>
<path id="path2_fill" d="M 57.168 98.576L 77.616 53.504L 63.072 53.504L 63.072 51.2L 91.44 51.2L 91.44 53.504L 81.936 53.504L 60.192 101.6L 60.192 149.264L 68.976 149.264L 68.976 152L 23.328 152L 23.328 149.264L 32.112 149.264L 32.112 104.336L 7.632 53.504L 0.864 53.504L 0.864 51.2L 46.944 51.2L 46.944 53.504L 37.584 53.504L 57.168 98.576Z"/>
<path id="path3_fill" d="M 61.92 125.936L 86.976 53.936L 75.744 53.936L 75.744 51.2L 97.776 51.2L 97.776 53.936L 91.008 53.936L 56.304 153.44L 44.208 153.44L 7.488 53.936L 0.864 53.936L 0.864 51.2L 47.952 51.2L 47.952 53.936L 37.728 53.936L 61.92 125.936ZM 119.077 73.52C 113.989 73.52 110.341 72.224 108.133 69.632C 106.021 67.04 104.965 63.824 104.965 59.984C 104.965 56.144 106.117 52.976 108.421 50.48C 110.821 47.984 114.421 46.736 119.221 46.736C 124.021 46.736 127.669 47.888 130.165 50.192C 132.661 52.4 133.909 55.616 133.909 59.84C 133.909 63.968 132.709 67.28 130.309 69.776C 127.909 72.272 124.165 73.52 119.077 73.52ZM 97.3328 83.456L 132.613 83.456L 132.613 149.408L 140.677 149.408L 140.677 152L 97.9087 152L 97.9087 149.408L 105.829 149.408L 105.829 86.048L 97.3328 86.048L 97.3328 83.456ZM 146.924 153.44L 146.924 127.664L 148.652 127.664C 151.148 136.016 154.508 141.872 158.732 145.232C 162.956 148.592 168.236 150.272 174.572 150.272C 184.364 150.272 189.26 147.152 189.26 140.912C 189.26 138.224 188.06 136.208 185.66 134.864C 181.916 132.752 177.116 131.12 171.26 129.968C 164.732 128.24 159.26 125.936 154.844 123.056C 149.564 119.6 146.924 114.128 146.924 106.64C 146.924 99.152 149.228 93.2 153.836 88.784C 158.444 84.272 164.588 82.016 172.268 82.016C 176.972 82.016 181.82 83.12 186.812 85.328C 188.636 86.096 190.028 86.48 190.988 86.48C 191.948 86.48 192.764 86.144 193.436 85.472C 194.108 84.8 194.924 83.552 195.884 81.728L 197.468 81.728L 197.468 103.76L 195.74 103.76C 190.844 91.28 183.26 85.04 172.988 85.04C 168.476 85.04 165.116 85.856 162.908 87.488C 160.7 89.024 159.596 90.992 159.596 93.392C 159.596 94.832 159.932 95.984 160.604 96.848C 161.276 97.616 161.804 98.192 162.188 98.576C 162.572 98.96 163.196 99.392 164.06 99.872C 164.924 100.256 165.644 100.592 166.22 100.88C 166.796 101.072 167.66 101.36 168.812 101.744C 170.06 102.128 170.972 102.368 171.548 102.464C 178.076 104.096 182.78 105.536 185.66 106.784C 188.54 107.936 191.276 109.376 193.868 111.104C 199.148 114.752 201.788 120.656 201.788 128.816C 201.788 136.88 199.388 143.024 194.588 147.248C 189.788 151.376 183.212 153.44 174.86 153.44C 168.908 153.44 163.148 152.048 157.58 149.264C 156.428 148.496 155.516 148.112 154.844 148.112C 152.732 148.112 150.668 149.888 148.652 153.44L 146.924 153.44ZM 289.164 152L 256.332 152L 254.748 141.488C 253.212 145.328 250.908 148.304 247.836 150.416C 244.86 152.432 240.396 153.44 234.444 153.44C 219.564 153.44 212.124 145.424 212.124 129.392L 212.124 86.048L 204.06 86.048L 204.06 83.456L 238.908 83.456L 238.908 132.848C 238.908 138.608 239.292 142.4 240.06 144.224C 240.924 146.048 242.556 146.96 244.956 146.96C 247.452 146.96 249.66 145.472 251.58 142.496C 253.5 139.52 254.46 135.392 254.46 130.112L 254.46 86.048L 247.836 86.048L 247.836 83.456L 281.244 83.456L 281.244 149.408L 289.164 149.408L 289.164 152ZM 326.672 118.16L 330.848 118.16L 330.848 107.072C 330.848 97.952 330.32 91.856 329.264 88.784C 328.304 85.616 326.384 84.032 323.504 84.032C 321.776 84.032 320.192 84.512 318.752 85.472C 317.408 86.336 316.736 87.584 316.736 89.216C 316.736 90.752 317.024 92.336 317.6 93.968L 321.2 93.968C 321.968 95.984 322.352 98.432 322.352 101.312C 322.352 104.096 321.152 106.544 318.752 108.656C 316.352 110.672 313.328 111.68 309.68 111.68C 301.424 111.68 297.296 107.696 297.296 99.728C 297.296 87.92 307.328 82.016 327.392 82.016C 338.816 82.016 346.688 83.984 351.008 87.92C 355.424 91.76 357.632 98.864 357.632 109.232L 357.632 138.464C 357.632 143.456 359.024 145.952 361.808 145.952C 365.072 145.952 366.992 141.008 367.568 131.12L 369.728 131.264C 369.344 139.712 367.76 145.52 364.976 148.688C 362.192 151.856 357.632 153.44 351.296 153.44C 339.776 153.44 333.152 149.888 331.424 142.784C 330.176 146.432 328.304 149.12 325.808 150.848C 323.312 152.576 319.664 153.44 314.864 153.44C 300.656 153.44 293.552 147.632 293.552 136.016C 293.552 129.2 296.24 124.544 301.616 122.048C 307.088 119.456 315.44 118.16 326.672 118.16ZM 320.912 135.872C 320.912 140.864 321.152 144.08 321.632 145.52C 322.208 146.96 323.216 147.68 324.656 147.68C 326.192 147.68 327.584 146.48 328.832 144.08C 330.176 141.584 330.848 138.176 330.848 133.856L 330.848 120.464L 329.84 120.464C 323.888 120.464 320.912 124.832 320.912 133.568L 320.912 135.872ZM 370.567 44L 405.847 44L 405.847 149.408L 413.911 149.408L 413.911 152L 371.143 152L 371.143 149.408L 379.063 149.408L 379.063 46.592L 370.567 46.592L 370.567 44Z"/>
<path id="path4_fill" d="M 62.208 149.264L 51.696 118.16L 23.184 118.16L 12.096 149.264L 22.896 149.264L 22.896 152L 0.864 152L 0.864 149.264L 7.632 149.264L 44.352 50.336L 56.16 50.336L 92.448 149.264L 99.072 149.264L 99.072 152L 51.984 152L 51.984 149.264L 62.208 149.264ZM 38.016 77.264L 24.48 114.992L 50.544 114.992L 38.016 77.264ZM 179.899 152L 147.067 152L 145.483 141.488C 143.947 145.328 141.643 148.304 138.571 150.416C 135.595 152.432 131.131 153.44 125.179 153.44C 110.299 153.44 102.859 145.424 102.859 129.392L 102.859 86.048L 94.7948 86.048L 94.7948 83.456L 129.643 83.456L 129.643 132.848C 129.643 138.608 130.027 142.4 130.795 144.224C 131.659 146.048 133.291 146.96 135.691 146.96C 138.187 146.96 140.395 145.472 142.315 142.496C 144.235 139.52 145.195 135.392 145.195 130.112L 145.195 86.048L 138.571 86.048L 138.571 83.456L 171.979 83.456L 171.979 149.408L 179.899 149.408L 179.899 152ZM 212.078 122.192C 212.078 132.272 212.606 138.992 213.662 142.352C 214.718 145.616 216.638 147.248 219.422 147.248C 222.302 147.248 224.75 146 226.766 143.504C 228.878 141.008 229.934 137.312 229.934 132.416L 229.934 101.024C 229.934 96.896 229.118 93.392 227.486 90.512C 225.854 87.632 223.454 86.192 220.286 86.192C 217.118 86.192 214.958 88.304 213.806 92.528C 212.654 96.752 212.078 104.144 212.078 114.704L 212.078 122.192ZM 231.806 152L 230.222 141.92C 226.958 149.6 220.334 153.44 210.35 153.44C 202.094 153.44 195.662 150.464 191.054 144.512C 186.542 138.56 184.286 129.68 184.286 117.872C 184.286 93.968 193.79 82.016 212.798 82.016C 221.246 82.016 226.814 84.368 229.502 89.072L 229.502 46.592L 220.718 46.592L 220.718 44L 256.718 44L 256.718 149.408L 263.774 149.408L 263.774 152L 231.806 152ZM 288.671 73.52C 283.583 73.52 279.934 72.224 277.727 69.632C 275.614 67.04 274.559 63.824 274.559 59.984C 274.559 56.144 275.711 52.976 278.014 50.48C 280.415 47.984 284.015 46.736 288.815 46.736C 293.615 46.736 297.263 47.888 299.758 50.192C 302.254 52.4 303.502 55.616 303.502 59.84C 303.502 63.968 302.302 67.28 299.902 69.776C 297.503 72.272 293.759 73.52 288.671 73.52ZM 266.927 83.456L 302.206 83.456L 302.206 149.408L 310.271 149.408L 310.271 152L 267.502 152L 267.502 149.408L 275.422 149.408L 275.422 86.048L 266.927 86.048L 266.927 83.456ZM 359.718 123.632L 359.718 111.392C 359.718 102.08 359.19 95.312 358.134 91.088C 357.174 86.768 354.87 84.608 351.222 84.608C 349.11 84.608 347.382 85.232 346.038 86.48C 344.79 87.632 343.878 89.6 343.302 92.384C 342.438 96.704 342.006 103.28 342.006 112.112L 342.006 123.344C 342.006 133.808 342.294 140.096 342.87 142.208C 343.542 144.32 344.214 146.048 344.886 147.392C 345.942 149.696 348.006 150.848 351.078 150.848C 354.822 150.848 357.27 148.688 358.422 144.368C 359.286 141.296 359.718 134.384 359.718 123.632ZM 350.79 153.44C 338.79 153.44 329.718 150.368 323.574 144.224C 317.43 138.08 314.358 129.296 314.358 117.872C 314.358 106.352 317.622 97.52 324.15 91.376C 330.774 85.136 340.038 82.016 351.942 82.016C 363.846 82.016 372.726 84.896 378.582 90.656C 384.438 96.32 387.366 105.008 387.366 116.72C 387.366 141.2 375.174 153.44 350.79 153.44Z"/>
</defs>
</svg>
